<svg width="55" height="11" viewBox="0 0 55 11" fill="none" xmlns="http://www.w3.org/2000/svg">
<path d="M6.578 0.939V1.901H4.108V10H2.925V1.901H0.442V0.939H6.578ZM12.0702 2.746C12.6075 2.746 13.0929 2.863 13.5262 3.097C13.9595 3.32233 14.2975 3.66467 14.5402 4.124C14.7915 4.58333 14.9172 5.14233 14.9172 5.801V10H13.7472V5.97C13.7472 5.25933 13.5695 4.71767 13.2142 4.345C12.8589 3.96367 12.3735 3.773 11.7582 3.773C11.1342 3.773 10.6359 3.968 10.2632 4.358C9.8992 4.748 9.7172 5.31567 9.7172 6.061V10H8.5342V0.38H9.7172V3.89C9.9512 3.526 10.2719 3.24433 10.6792 3.045C11.0952 2.84567 11.5589 2.746 12.0702 2.746ZM20.4566 10.117C19.7893 10.117 19.1826 9.96533 18.6366 9.662C18.0993 9.35867 17.6746 8.92967 17.3626 8.375C17.0593 7.81167 16.9076 7.16167 16.9076 6.425C16.9076 5.697 17.0636 5.05567 17.3756 4.501C17.6963 3.93767 18.1296 3.50867 18.6756 3.214C19.2216 2.91067 19.8326 2.759 20.5086 2.759C21.1846 2.759 21.7956 2.91067 22.3416 3.214C22.8876 3.50867 23.3166 3.93333 23.6286 4.488C23.9493 5.04267 24.1096 5.68833 24.1096 6.425C24.1096 7.16167 23.945 7.81167 23.6156 8.375C23.295 8.92967 22.8573 9.35867 22.3026 9.662C21.748 9.96533 21.1326 10.117 20.4566 10.117ZM20.4566 9.077C20.8813 9.077 21.28 8.97733 21.6526 8.778C22.0253 8.57867 22.3243 8.27967 22.5496 7.881C22.7836 7.48233 22.9006 6.997 22.9006 6.425C22.9006 5.853 22.788 5.36767 22.5626 4.969C22.3373 4.57033 22.0426 4.27567 21.6786 4.085C21.3146 3.88567 20.9203 3.786 20.4956 3.786C20.0623 3.786 19.6636 3.88567 19.2996 4.085C18.9443 4.27567 18.6583 4.57033 18.4416 4.969C18.225 5.36767 18.1166 5.853 18.1166 6.425C18.1166 7.00567 18.2206 7.49533 18.4286 7.894C18.6453 8.29267 18.9313 8.59167 19.2866 8.791C19.642 8.98167 20.032 9.077 20.4566 9.077ZM34.7321 2.746C35.2867 2.746 35.7807 2.863 36.2141 3.097C36.6474 3.32233 36.9897 3.66467 37.2411 4.124C37.4924 4.58333 37.6181 5.14233 37.6181 5.801V10H36.4481V5.97C36.4481 5.25933 36.2704 4.71767 35.9151 4.345C35.5684 3.96367 35.0961 3.773 34.4981 3.773C33.8827 3.773 33.3931 3.97233 33.0291 4.371C32.6651 4.761 32.4831 5.32867 32.4831 6.074V10H31.3131V5.97C31.3131 5.25933 31.1354 4.71767 30.7801 4.345C30.4334 3.96367 29.9611 3.773 29.3631 3.773C28.7477 3.773 28.2581 3.97233 27.8941 4.371C27.5301 4.761 27.3481 5.32867 27.3481 6.074V10H26.1651V2.876H27.3481V3.903C27.5821 3.53033 27.8941 3.24433 28.2841 3.045C28.6827 2.84567 29.1204 2.746 29.5971 2.746C30.1951 2.746 30.7237 2.88033 31.1831 3.149C31.6424 3.41767 31.9847 3.812 32.2101 4.332C32.4094 3.82933 32.7387 3.43933 33.1981 3.162C33.6574 2.88467 34.1687 2.746 34.7321 2.746ZM39.6166 6.412C39.6166 5.684 39.764 5.047 40.0586 4.501C40.3533 3.94633 40.7563 3.51733 41.2676 3.214C41.7876 2.91067 42.364 2.759 42.9966 2.759C43.6206 2.759 44.1623 2.89333 44.6216 3.162C45.081 3.43067 45.4233 3.76867 45.6486 4.176V2.876H46.8446V10H45.6486V8.674C45.4146 9.09 45.0636 9.43667 44.5956 9.714C44.1363 9.98267 43.599 10.117 42.9836 10.117C42.351 10.117 41.779 9.961 41.2676 9.649C40.7563 9.337 40.3533 8.89933 40.0586 8.336C39.764 7.77267 39.6166 7.13133 39.6166 6.412ZM45.6486 6.425C45.6486 5.88767 45.5403 5.41967 45.3236 5.021C45.107 4.62233 44.8123 4.319 44.4396 4.111C44.0756 3.89433 43.6726 3.786 43.2306 3.786C42.7886 3.786 42.3856 3.89 42.0216 4.098C41.6576 4.306 41.3673 4.60933 41.1506 5.008C40.934 5.40667 40.8256 5.87467 40.8256 6.412C40.8256 6.958 40.934 7.43467 41.1506 7.842C41.3673 8.24067 41.6576 8.54833 42.0216 8.765C42.3856 8.973 42.7886 9.077 43.2306 9.077C43.6726 9.077 44.0756 8.973 44.4396 8.765C44.8123 8.54833 45.107 8.24067 45.3236 7.842C45.5403 7.43467 45.6486 6.96233 45.6486 6.425ZM51.8658 10.117C51.3198 10.117 50.8301 10.026 50.3968 9.844C49.9634 9.65333 49.6211 9.39333 49.3698 9.064C49.1184 8.726 48.9798 8.34033 48.9538 7.907H50.1758C50.2104 8.26233 50.3751 8.55267 50.6698 8.778C50.9731 9.00333 51.3674 9.116 51.8528 9.116C52.3034 9.116 52.6588 9.01633 52.9188 8.817C53.1788 8.61767 53.3088 8.36633 53.3088 8.063C53.3088 7.751 53.1701 7.52133 52.8928 7.374C52.6154 7.218 52.1864 7.06633 51.6058 6.919C51.0771 6.78033 50.6438 6.64167 50.3058 6.503C49.9764 6.35567 49.6904 6.14333 49.4478 5.866C49.2138 5.58 49.0968 5.20733 49.0968 4.748C49.0968 4.384 49.2051 4.05033 49.4218 3.747C49.6384 3.44367 49.9461 3.20533 50.3448 3.032C50.7434 2.85 51.1984 2.759 51.7098 2.759C52.4984 2.759 53.1354 2.95833 53.6208 3.357C54.1061 3.75567 54.3661 4.30167 54.4008 4.995H53.2178C53.1918 4.62233 53.0401 4.32333 52.7628 4.098C52.4941 3.87267 52.1301 3.76 51.6708 3.76C51.2461 3.76 50.9081 3.851 50.6568 4.033C50.4054 4.215 50.2798 4.45333 50.2798 4.748C50.2798 4.982 50.3534 5.177 50.5008 5.333C50.6568 5.48033 50.8474 5.60167 51.0728 5.697C51.3068 5.78367 51.6274 5.88333 52.0348 5.996C52.5461 6.13467 52.9621 6.27333 53.2828 6.412C53.6034 6.542 53.8764 6.74133 54.1018 7.01C54.3358 7.27867 54.4571 7.62967 54.4658 8.063C54.4658 8.453 54.3574 8.804 54.1408 9.116C53.9241 9.428 53.6164 9.675 53.2178 9.857C52.8278 10.0303 52.3771 10.117 51.8658 10.117Z" fill="white"/>
</svg>
